<svg xmlns="http://www.w3.org/2000/svg" width="127" height="195" fill="none"><mask id="a" width="161" height="195" x="0" y="0" maskUnits="userSpaceOnUse" style="mask-type:alpha"><path fill="#fff" d="M.307 0h159.694v194.789H.307V0Z"/></mask><g fill-rule="evenodd" clip-rule="evenodd" mask="url(#a)"><path fill="#F3AF47" d="M126.409 190.425c29.045-19.93 35.063-56.151 33.315-88.594-.291-5.417.235-11.137-2.57-15.85-2.809-4.708-9.215-7.855-14.294-5.49-4.213 1.965-5.981 6.674-8.288 10.584-3.067 5.202-7.701 9.54-13.196 12.354-3.61 1.85-8.095 3.017-11.726 1.196-4.978-2.498-5.674-8.945-5.736-14.337-.116-10.045-.231-20.09-.344-30.136-.062-5.389-.144-10.891-2.006-15.978-1.86-5.087-5.856-9.773-11.294-11.123-5.437-1.35-12.075 1.714-13.123 7.008-.436 2.203.077 4.475-.041 6.714-.118 2.24-1.173 4.732-3.405 5.391-2.26.67-4.563-.82-6.292-2.373-5.97-5.345-10.08-12.29-13.928-19.201-3.85-6.911-7.593-13.989-13.028-19.84C35.022 4.903 27.568.318 19.412.012 11.257-.29 2.662 4.611.74 12.22c-1.928 7.633 2.887 15.265 8.091 21.334C16.55 42.557 25.631 50.483 35.7 57c1.815 1.179 3.783 2.449 4.505 4.434 1.299 3.574-2.23 7.2-5.952 8.44-4.218 1.408-8.824 1.064-13.252 1.632-4.428.567-9.198 2.498-10.806 6.496-2.23 5.546 2.736 11.24 7.588 14.946 9.72 7.418 20.768 13.223 32.512 17.084 4.21 1.384 8.636 2.585 12.06 5.318 3.426 2.73 5.55 7.539 3.579 11.368-1.971 3.835-7.183 5.133-11.579 4.432-4.395-.698-8.362-2.889-12.565-4.313-7.867-2.671-17.954-1.998-22.846 4.484-3.216 4.26-3.4 10.125-1.646 15.112 1.753 4.989 5.207 9.253 8.865 13.182 12.781 13.724 29.022 24.675 47.264 30.338 18.24 5.665 35.073 7.007 52.983.472Z"/><path fill="#263238" d="M129.203 239.662c.545-7.235.14-11.303-1.361-24.225-1.467-12.917-4.708-28.147-10.061-44.531-5.321-16.397-12.713-33.911-21.101-51.975-2.116-4.506-4.203-8.961-6.263-13.352-2.067-4.377-4.117-8.719-6.395-12.847-4.52-8.276-9.524-15.903-14.513-23.001-4.985-7.104-9.988-13.673-14.712-19.78-4.74-6.099-9.271-11.705-13.627-16.646-8.686-9.918-16.665-17.11-22.356-21.834a183.775 183.775 0 0 0-6.659-5.32l-1.773-1.333c-.404-.295-.615-.44-.628-.427-.012.016.178.186.561.507.424.35.992.816 1.708 1.408a293.468 293.468 0 0 1 6.526 5.46 208.376 208.376 0 0 1 22.056 21.998c4.31 4.956 8.795 10.575 13.498 16.689 4.69 6.125 9.661 12.7 14.613 19.797 4.953 7.095 9.923 14.705 14.404 22.942 2.26 4.11 4.285 8.414 6.355 12.804 2.054 4.388 4.14 8.843 6.254 13.346 8.381 18.048 15.782 35.508 21.139 51.843 5.386 16.32 8.686 31.471 10.242 44.331 1.589 12.866 2.108 16.892 1.687 24.118"/><path fill="#263238" d="M82.222 90.757c.061.012.215-.813.444-2.314.236-1.496.51-3.675.813-6.372.612-5.39 1.225-12.867 1.871-21.112.648-8.252 1.355-15.698 2.038-21.063.337-2.683.628-4.854.846-6.35.212-1.498.3-2.336.237-2.35-.06-.015-.262.796-.581 2.273-.326 1.477-.714 3.637-1.13 6.317-.85 5.358-1.662 12.822-2.308 21.082-.62 8.139-1.179 15.501-1.609 21.128-.207 2.54-.383 4.682-.526 6.399-.12 1.51-.157 2.352-.095 2.362Z"/><path fill="#263238" d="M9.754 78.95c-.001.068 1.029.165 2.886.283 1.855.13 4.54.301 7.852.615 6.627.579 15.748 1.685 25.76 3.331 10.01 1.662 19.002 3.538 25.463 5.075 3.24.747 5.843 1.418 7.647 1.873 1.8.46 2.806.685 2.83.618.02-.066-.948-.416-2.72-.994a139.96 139.96 0 0 0-7.576-2.186c-6.435-1.719-15.435-3.711-25.474-5.38-10.04-1.648-19.212-2.647-25.873-3.045-3.329-.225-6.03-.29-7.895-.296-1.867.002-2.899.036-2.9.106Zm107.089 89.237c.035.014.194-.282.478-.855l1.186-2.534c1.018-2.207 2.407-5.434 4.067-9.443 3.33-8.018 7.565-19.233 12.067-31.667 4.507-12.44 8.628-23.679 11.778-31.75 1.545-3.928 2.816-7.154 3.762-9.554l1.007-2.605c.219-.599.319-.92.287-.935-.036-.011-.198.282-.479.857l-1.184 2.533c-1.02 2.203-2.408 5.434-4.071 9.442-3.328 8.016-7.562 19.231-12.068 31.672-4.503 12.437-8.626 23.675-11.775 31.749-1.546 3.921-2.816 7.153-3.759 9.548-.405 1.043-.735 1.903-1.009 2.607-.22.6-.32.92-.287.935Z"/><path fill="#263238" d="M19.203 138.417c-.01.036.325.166.97.383.763.242 1.7.539 2.837.902l10.455 3.204c8.829 2.709 20.978 6.592 34.397 10.897 13.424 4.311 25.623 8.083 34.507 10.609 4.444 1.264 8.048 2.251 10.552 2.882 1.161.284 2.114.517 2.891.709.662.15 1.016.213 1.024.175.01-.035-.325-.164-.969-.383l-2.835-.899-10.455-3.204c-8.828-2.71-20.98-6.592-34.403-10.901-13.419-4.308-25.615-8.081-34.503-10.606-4.441-1.266-8.046-2.252-10.553-2.884l-2.89-.709c-.662-.149-1.014-.21-1.025-.175Z"/></g></svg>