<svg xmlns="http://www.w3.org/2000/svg" width="155" height="137" fill="none"><mask id="a" width="179" height="172" x="0" y="1" maskUnits="userSpaceOnUse" style="mask-type:alpha"><path fill="#fff" d="M81.368 1.532 0 67.782 96.919 172.21l81.368-66.251L81.368 1.532Z"/></mask><g mask="url(#a)"><path fill="#E8505B" fill-rule="evenodd" d="M161.152 114.156c2.569-22.935-14.272-44.478-32.637-60.698-3.064-2.706-5.92-5.928-9.76-7.185-3.842-1.253-8.491-.142-9.545 3.285-.878 2.84.86 6.066 1.917 9.106 1.406 4.042 1.623 8.308.618 12.145-.658 2.522-2.09 5.065-4.745 5.674-3.642.838-7.452-2.235-10.398-5.027-5.493-5.209-10.985-10.413-16.472-15.62-2.947-2.791-5.964-5.637-9.572-7.495-3.61-1.859-7.984-2.592-11.216-.957-3.23 1.637-4.624 6.1-2.241 9.32.993 1.34 2.457 2.308 3.616 3.53 1.158 1.222 2.022 2.98 1.35 4.287-.675 1.323-2.541 1.535-4.176 1.468-5.64-.226-11.29-2.09-16.798-4.048-5.514-1.96-11.067-4.05-16.731-4.77-5.667-.72-11.575.095-15.49 3.444-3.917 3.354-5.215 9.618-1.98 14.427 3.245 4.823 9.593 6.742 15.27 7.677 8.421 1.386 16.89 1.624 25.05.697 1.472-.165 3.062-.348 4.471.382 2.532 1.309 2.873 4.724 1.833 6.978-1.179 2.552-3.486 4.356-5.212 6.56-1.733 2.201-2.88 5.265-1.454 8.051 1.977 3.862 7.343 4.703 11.581 4.55 8.483-.303 16.708-2.022 24.2-5.06 2.684-1.089 5.369-2.368 8.422-2.415 3.056-.045 6.636 1.556 7.8 4.407 1.171 2.855-.521 5.78-2.924 7.306-2.4 1.53-5.409 2.089-8.115 3.155-5.062 1.991-9.337 6.686-8.079 12.183.828 3.616 3.918 6.762 7.426 8.616 3.504 1.855 7.403 2.598 11.21 3.08 13.306 1.674 26.705.411 38.161-4.482 11.455-4.892 19.921-11.44 24.62-22.571Z" clip-rule="evenodd"/></g><mask id="b" width="179" height="172" x="0" y="1" maskUnits="userSpaceOnUse" style="mask-type:alpha"><path fill="#fff" d="M81.368 1.532 0 67.782 96.919 172.21l81.368-66.251L81.368 1.532Z"/></mask><g mask="url(#b)"><path fill="#F8CD99" fill-rule="evenodd" d="M161.152 114.156c2.569-22.935-14.272-44.478-32.637-60.698-3.064-2.706-5.92-5.928-9.76-7.185-3.842-1.253-8.491-.142-9.545 3.285-.878 2.84.86 6.066 1.917 9.106 1.406 4.042 1.623 8.308.618 12.145-.658 2.522-2.09 5.065-4.745 5.674-3.642.838-7.452-2.235-10.398-5.027-5.493-5.209-10.985-10.413-16.472-15.62-2.947-2.791-5.964-5.637-9.572-7.495-3.61-1.859-7.984-2.592-11.216-.957-3.23 1.637-4.624 6.1-2.241 9.32.993 1.34 2.457 2.308 3.616 3.53 1.158 1.222 2.022 2.98 1.35 4.287-.675 1.323-2.541 1.535-4.176 1.468-5.64-.226-11.29-2.09-16.798-4.048-5.514-1.96-11.067-4.05-16.731-4.77-5.667-.72-11.575.095-15.49 3.444-3.917 3.354-5.215 9.618-1.98 14.427 3.245 4.823 9.593 6.742 15.27 7.677 8.421 1.386 16.89 1.624 25.05.697 1.472-.165 3.062-.348 4.471.382 2.532 1.309 2.873 4.724 1.833 6.978-1.179 2.552-3.486 4.356-5.212 6.56-1.733 2.201-2.88 5.265-1.454 8.051 1.977 3.862 7.343 4.703 11.581 4.55 8.483-.303 16.708-2.022 24.2-5.06 2.684-1.089 5.369-2.368 8.422-2.415 3.056-.045 6.636 1.556 7.8 4.407 1.171 2.855-.521 5.78-2.924 7.306-2.4 1.53-5.409 2.089-8.115 3.155-5.062 1.991-9.337 6.686-8.079 12.183.828 3.616 3.918 6.762 7.426 8.616 3.504 1.855 7.403 2.598 11.21 3.08 13.306 1.674 26.705.411 38.161-4.482 11.455-4.892 19.921-11.44 24.62-22.571Z" clip-rule="evenodd"/><mask id="c" width="190" height="187" x="4" y="16" maskUnits="userSpaceOnUse" style="mask-type:alpha"><path fill="#fff" d="M69.268 16.124 4.598 68.833 128.557 202.53l64.67-52.708L69.267 16.124Z"/></mask><g mask="url(#c)"><path fill="#263238" fill-rule="evenodd" d="M4.598 68.832c.004.013.182.022.522.025.382.002.885.001 1.527.007 1.34-.002 3.313-.005 5.865.06 5.1.118 12.529.532 21.724 2.044 4.596.737 9.626 1.747 15.02 2.92 5.392 1.185 11.151 2.483 17.185 4.062 6.03 1.577 12.344 3.41 18.771 5.778 3.217 1.171 6.433 2.542 9.716 3.938 3.277 1.403 6.6 2.827 9.962 4.264 13.436 5.798 26.115 11.706 37.268 17.897 11.159 6.172 20.754 12.622 28.332 18.627 7.599 5.993 13.185 11.48 16.859 15.404 1.828 1.972 3.22 3.526 4.126 4.606l1.055 1.214c.241.272.37.408.378.404.009-.008-.098-.155-.324-.441l-.999-1.251c-.874-1.108-2.235-2.689-4.041-4.691-3.621-3.979-9.177-9.538-16.766-15.598-7.57-6.068-17.177-12.589-28.356-18.808-11.172-6.238-23.875-12.179-37.323-17.98-3.363-1.44-6.69-2.86-9.968-4.262-3.275-1.392-6.522-2.772-9.755-3.944-6.469-2.37-12.808-4.202-18.856-5.765-6.05-1.564-11.82-2.847-17.22-4.008-5.403-1.148-10.447-2.13-15.056-2.846-9.225-1.453-16.673-1.794-21.768-1.83-2.552-.025-4.523.019-5.853.067l-1.514.064c-.34.016-.513.03-.512.043" clip-rule="evenodd"/></g><path fill="#263238" fill-rule="evenodd" d="M87.39 82.338c.06-.043-.275-.603-.937-1.58-.653-.981-1.669-2.354-2.962-4.02-2.572-3.337-6.357-7.773-10.564-12.643-4.207-4.87-7.889-9.368-10.378-12.755a145.543 145.543 0 0 1-2.918-4.032c-.675-.962-1.082-1.473-1.149-1.43-.062.042.218.635.786 1.675.559 1.043 1.458 2.498 2.632 4.25 2.334 3.517 5.93 8.11 10.141 12.987 4.167 4.787 7.94 9.119 10.82 12.43 1.283 1.508 2.37 2.778 3.24 3.798.772.893 1.227 1.367 1.288 1.32Zm-37.488 25.377c.026.024.531-.361 1.418-1.078.89-.711 2.174-1.748 3.797-2.989 3.226-2.499 7.794-5.83 12.97-9.327 5.186-3.488 9.992-6.482 13.522-8.567 1.76-1.053 3.2-1.873 4.195-2.445.998-.567 1.54-.9 1.525-.932-.017-.032-.593.237-1.62.75a98.896 98.896 0 0 0-4.288 2.301c-3.588 2.009-8.444 4.963-13.645 8.462-5.191 3.507-9.738 6.896-12.91 9.478a85.828 85.828 0 0 0-3.692 3.12c-.845.766-1.298 1.2-1.272 1.227Zm95.169-1.436c.024-.007-.058-.233-.234-.653l-.802-1.833c-.706-1.589-1.786-3.87-3.158-6.676-2.739-5.614-6.767-13.281-11.326-21.698-4.56-8.42-8.652-16.051-11.505-21.613l-3.362-6.6c-.367-.717-.673-1.304-.921-1.792-.222-.407-.344-.616-.369-.61-.023.01.06.234.236.655.215.494.481 1.098.801 1.83.705 1.59 1.786 3.87 3.156 6.677 2.741 5.614 6.767 13.282 11.328 21.702 4.557 8.416 8.651 16.046 11.505 21.612 1.38 2.71 2.518 4.939 3.359 6.595.371.717.673 1.308.926 1.794.22.406.344.617.367.61" clip-rule="evenodd"/><path fill="#263238" fill-rule="evenodd" d="M80.814 132.964c.016.022.247-.062.675-.241l1.858-.821c1.7-.773 3.994-1.815 6.783-3.085 5.732-2.604 13.697-6.105 22.509-9.962 8.816-3.859 16.748-7.439 22.406-10.164 2.831-1.364 5.107-2.489 6.659-3.298.712-.38 1.3-.69 1.777-.944.403-.223.609-.354.594-.376-.016-.021-.247.063-.679.241a373 373 0 0 1-1.856.824l-6.783 3.081c-5.726 2.606-13.696 6.109-22.512 9.967-8.811 3.855-16.743 7.436-22.402 10.16-2.832 1.363-5.107 2.488-6.658 3.298-.711.381-1.3.691-1.78.945-.4.223-.606.351-.591.375Z" clip-rule="evenodd"/></g></svg>