<svg xmlns="http://www.w3.org/2000/svg" width="31" height="32" fill="none"><path stroke="#FF5678" stroke-width="1.3" d="M7.4 1h16.2c3.6 0 6.5 2.9 6.5 6.5v17c0 3.6-2.9 6.5-6.5 6.5H7.4C3.8 31 .9 28.1.9 24.5v-17C.9 3.9 3.8 1 7.4 1Z"/><path fill="#FF5678" d="M12 17.2c1.5 0 2.5-1 2.5-2.4v-2.3c0-1.4-1-2.4-2.5-2.4s-2.5 1-2.5 2.4v2.3c0 1.4 1.1 2.4 2.5 2.4Zm.9 5.3 7.5-10.7-1.5-1.1-7.5 10.7 1.5 1.1Zm-.9-6.9c-.4 0-.8-.3-.8-.8v-2.2c-.1-1 1.6-1 1.5 0v2.2c.1.4-.2.8-.7.8Zm7.7 7.6c1.5 0 2.6-1 2.6-2.4v-2.3c0-1.4-1.1-2.4-2.6-2.4s-2.5 1-2.5 2.4v2.3c0 1.4 1.1 2.4 2.5 2.4Zm.1-1.6c-.5 0-.8-.4-.8-.8v-2.2c0-.4.3-.8.8-.8s.8.3.8.8v2.2c-.1.5-.4.8-.8.8Z"/></svg>