<svg xmlns="http://www.w3.org/2000/svg" width="105" height="105" fill="none"><path fill="url(#a)" d="M52.5 105c28.995 0 52.5-23.505 52.5-52.5S81.495 0 52.5 0 0 23.505 0 52.5 23.505 105 52.5 105Z" opacity=".2"/><path fill="#0CC" stroke="#173753" stroke-linecap="round" stroke-linejoin="round" stroke-width="3.402" d="M52.25 78.5c14.498 0 26.25-11.752 26.25-26.25S66.748 26 52.25 26 26 37.752 26 52.25 37.752 78.5 52.25 78.5Z"/><path fill="#E5F9F9" d="M52.25 70.625c10.148 0 18.375-8.227 18.375-18.375S62.398 33.875 52.25 33.875 33.875 42.102 33.875 52.25s8.227 18.375 18.375 18.375Z"/><path stroke="#173753" stroke-linecap="round" stroke-linejoin="round" stroke-width="2.481" d="M46 52.615h13.23m-6.615 6.615 6.615-6.615L52.615 46v13.23Z"/><defs><linearGradient id="a" x1="42.731" x2="77.71" y1="6.386" y2="105" gradientUnits="userSpaceOnUse"><stop stop-color="#00C9C9" stop-opacity=".147"/><stop offset="1" stop-color="#00C9C9" stop-opacity=".699"/></linearGradient></defs></svg>